<svg width="40" height="40" viewBox="0 0 40 40" fill="none" xmlns="http://www.w3.org/2000/svg">
<path d="M7.00001 3.992L7.18001 4.008C7.37982 4.04451 7.56378 4.14099 7.7074 4.28462C7.85103 4.42824 7.94751 4.6122 7.98401 4.812L8.00001 4.992V9.416C10.3933 6.70149 13.6361 4.87849 17.1991 4.24462C20.762 3.61075 24.4346 4.20347 27.6173 5.92599C30.7999 7.64852 33.3046 10.3991 34.7224 13.7287C36.1403 17.0583 36.3875 20.7702 35.4237 24.2584C34.4599 27.7466 32.3421 30.805 29.416 32.9344C26.4899 35.0637 22.9283 36.1382 19.3128 35.9824C15.6972 35.8267 12.2413 34.4498 9.50919 32.0766C6.77707 29.7034 4.93017 26.4742 4.27001 22.916C4.05628 21.6074 3.96921 20.2813 4.01001 18.956C4.03294 18.7 4.15357 18.4626 4.34686 18.2932C4.54015 18.1238 4.79126 18.0353 5.04807 18.0461C5.30488 18.0569 5.54767 18.1662 5.72604 18.3512C5.90442 18.5363 6.00468 18.783 6.00601 19.04C5.97168 20.2146 6.04802 21.3898 6.23401 22.55C6.82365 25.7307 8.49655 28.609 10.9684 30.6957C13.4402 32.7825 16.5583 33.9489 19.7928 33.9966C23.0273 34.0444 26.1786 32.9705 28.7109 30.9577C31.2432 28.9448 33.0003 26.1171 33.6836 22.9553C34.3669 19.7934 33.9341 16.4925 32.4589 13.6136C30.9837 10.7347 28.557 8.45549 25.5914 7.16341C22.6258 5.87133 19.3043 5.64609 16.1914 6.52599C13.0785 7.40589 10.3664 9.33662 8.51601 11.99L15 11.992L15.18 12.008C15.4106 12.0498 15.6192 12.1711 15.7694 12.351C15.9196 12.5308 16.0018 12.7577 16.0018 12.992C16.0018 13.2263 15.9196 13.4532 15.7694 13.633C15.6192 13.8129 15.4106 13.9343 15.18 13.976L15 13.992H7.00001L6.82001 13.976C6.62021 13.9395 6.43625 13.843 6.29263 13.6994C6.149 13.5558 6.05252 13.3718 6.01601 13.172L6.00001 12.992V4.992L6.01601 4.812C6.05252 4.6122 6.149 4.42824 6.29263 4.28462C6.43625 4.14099 6.62021 4.04451 6.82001 4.008L7.00001 3.992ZM19 11.992L19.18 12.008C19.3798 12.0445 19.5638 12.141 19.7074 12.2846C19.851 12.4282 19.9475 12.6122 19.984 12.812L20 12.992V21H24L24.18 21.016C24.4106 21.0578 24.6192 21.1791 24.7694 21.359C24.9196 21.5388 25.0018 21.7657 25.0018 22C25.0018 22.2343 24.9196 22.4612 24.7694 22.641C24.6192 22.8209 24.4106 22.9423 24.18 22.984L24 23H19L18.82 22.984C18.6202 22.9475 18.4363 22.851 18.2926 22.7074C18.149 22.5638 18.0525 22.3798 18.016 22.18L18 22V12.992L18.016 12.812C18.0525 12.6122 18.149 12.4282 18.2926 12.2846C18.4363 12.141 18.6202 12.0445 18.82 12.008L19 11.992Z" fill="#878787"/>
</svg>
