<svg width="40" height="40" viewBox="0 0 40 40" fill="none" xmlns="http://www.w3.org/2000/svg">
<path fill-rule="evenodd" clip-rule="evenodd" d="M8.33331 15H9.99998V23.3333H30V15H31.6667V23.3333H33.75C33.8605 23.3333 33.9665 23.3772 34.0446 23.4554C34.1228 23.5335 34.1667 23.6395 34.1667 23.75V24.5833C34.1667 24.6938 34.1228 24.7998 34.0446 24.878C33.9665 24.9561 33.8605 25 33.75 25H6.24998C6.13947 25 6.03349 24.9561 5.95535 24.878C5.87721 24.7998 5.83331 24.6938 5.83331 24.5833V23.75C5.83331 23.6395 5.87721 23.5335 5.95535 23.4554C6.03349 23.3772 6.13947 23.3333 6.24998 23.3333H8.33331V15ZM8.33331 28.3333V33.3333H31.6667V28.3333H8.33331ZM7.49998 26.6667C7.27897 26.6667 7.067 26.7545 6.91072 26.9107C6.75444 27.067 6.66665 27.279 6.66665 27.5V34.1667C6.66665 34.3877 6.75444 34.5996 6.91072 34.7559C7.067 34.9122 7.27897 35 7.49998 35H32.5C32.721 35 32.933 34.9122 33.0892 34.7559C33.2455 34.5996 33.3333 34.3877 33.3333 34.1667V27.5C33.3333 27.279 33.2455 27.067 33.0892 26.9107C32.933 26.7545 32.721 26.6667 32.5 26.6667H7.49998Z" fill="#878787"/>
<path fill-rule="evenodd" clip-rule="evenodd" d="M8.49083 6.66667L6.70333 11.5942C6.67927 11.6601 6.66687 11.7298 6.66667 11.8V13.7917C6.66667 14.4658 7.20583 15 7.8575 15C8.5075 15 9.0475 14.4667 9.0475 13.7925C9.0475 13.5715 9.1353 13.3595 9.29158 13.2032C9.44786 13.047 9.65982 12.9592 9.88083 12.9592C10.1018 12.9592 10.3138 13.047 10.4701 13.2032C10.6264 13.3595 10.7142 13.5715 10.7142 13.7925C10.7122 14.1105 10.8365 14.4162 11.0597 14.6426C11.283 14.869 11.587 14.9976 11.905 15C12.555 15 13.095 14.4667 13.095 13.7925C13.095 13.5715 13.1828 13.3595 13.3391 13.2032C13.4954 13.047 13.7073 12.9592 13.9283 12.9592C14.1493 12.9592 14.3613 13.047 14.5176 13.2032C14.6739 13.3595 14.7617 13.5715 14.7617 13.7925C14.7597 14.1105 14.884 14.4162 15.1072 14.6426C15.3305 14.869 15.6345 14.9976 15.9525 15C16.6025 15 17.1425 14.4667 17.1425 13.7933C17.1425 13.5723 17.2303 13.3604 17.3866 13.2041C17.5429 13.0478 17.7548 12.96 17.9758 12.96C18.1968 12.96 18.4088 13.0478 18.5651 13.2041C18.7214 13.3604 18.8092 13.5723 18.8092 13.7933C18.81 14.4667 19.35 15 20 15C20.65 15 21.1908 14.4667 21.1908 13.7925C21.1908 13.5715 21.2786 13.3595 21.4349 13.2032C21.5912 13.047 21.8032 12.9592 22.0242 12.9592C22.2452 12.9592 22.4571 13.047 22.6134 13.2032C22.7697 13.3595 22.8575 13.5715 22.8575 13.7925C22.8575 14.4658 23.3967 15 24.0475 15C24.6975 15 25.2375 14.4667 25.2383 13.7933C25.2383 13.5723 25.3261 13.3604 25.4824 13.2041C25.6387 13.0478 25.8507 12.96 26.0717 12.96C26.2927 12.96 26.5046 13.0478 26.6609 13.2041C26.8172 13.3604 26.905 13.5723 26.905 13.7933C26.905 14.4667 27.445 15 28.095 15C28.7458 15 29.2858 14.4667 29.2858 13.7925C29.2858 13.5715 29.3736 13.3595 29.5299 13.2032C29.6862 13.047 29.8982 12.9592 30.1192 12.9592C30.3402 12.9592 30.5521 13.047 30.7084 13.2032C30.8647 13.3595 30.9525 13.5715 30.9525 13.7925C30.9525 14.4658 31.4917 15 32.1425 15C32.7942 15 33.3333 14.4667 33.3333 13.7925V11.8008C33.3332 11.7303 33.3208 11.6604 33.2967 11.5942L31.5092 6.66667H8.49167H8.49083ZM31.48 6.58667L31.5983 6.54333L31.48 6.58667ZM30.1192 15.8217C29.8547 16.0898 29.5396 16.3026 29.192 16.4477C28.8445 16.5927 28.4716 16.6672 28.095 16.6667C27.7185 16.6671 27.3458 16.5926 26.9984 16.4476C26.651 16.3025 26.336 16.0897 26.0717 15.8217C25.8073 16.0898 25.4921 16.3027 25.1446 16.4477C24.797 16.5928 24.4241 16.6672 24.0475 16.6667C23.671 16.6671 23.2983 16.5926 22.9509 16.4476C22.6035 16.3025 22.2885 16.0897 22.0242 15.8217C21.7598 16.0898 21.4446 16.3027 21.0971 16.4477C20.7495 16.5928 20.3766 16.6672 20 16.6667C19.6234 16.6672 19.2505 16.5928 18.9029 16.4477C18.5554 16.3027 18.2402 16.0898 17.9758 15.8217C17.7115 16.0897 17.3965 16.3025 17.0491 16.4476C16.7017 16.5926 16.329 16.6671 15.9525 16.6667C15.16 16.6667 14.4442 16.3425 13.9283 15.8217C13.664 16.0897 13.349 16.3025 13.0016 16.4476C12.6542 16.5926 12.2815 16.6671 11.905 16.6667C11.5284 16.6672 11.1555 16.5927 10.808 16.4477C10.4604 16.3026 10.1453 16.0898 9.88083 15.8217C9.61662 16.0896 9.30173 16.3023 8.9545 16.4474C8.60727 16.5925 8.23465 16.667 7.85833 16.6667C6.2725 16.6667 5 15.3733 5 13.7925V11.8008C5 11.5367 5.04583 11.2742 5.13583 11.0258L6.9525 6.0175C7.06027 5.71941 7.25731 5.46178 7.51678 5.27971C7.77624 5.09763 8.08552 4.99996 8.4025 5H31.5992C31.916 5.00037 32.2249 5.09832 32.4841 5.28053C32.7432 5.46273 32.94 5.72035 33.0475 6.01833L34.8642 11.0258C34.955 11.2742 35.0008 11.5367 35.0008 11.8008V13.7925C35 15.3733 33.7275 16.6667 32.1425 16.6667C31.766 16.6671 31.3933 16.5926 31.0459 16.4476C30.6985 16.3025 30.3835 16.0897 30.1192 15.8217Z" fill="#878787"/>
<path d="M11.6667 21.25C11.6667 21.1395 11.7106 21.0335 11.7887 20.9554C11.8669 20.8772 11.9728 20.8333 12.0834 20.8333H14.5834C14.6939 20.8333 14.7998 20.8772 14.878 20.9554C14.9561 21.0335 15 21.1395 15 21.25V22.9167C15 23.0272 14.9561 23.1332 14.878 23.2113C14.7998 23.2894 14.6939 23.3333 14.5834 23.3333H12.0834C11.9728 23.3333 11.8669 23.2894 11.7887 23.2113C11.7106 23.1332 11.6667 23.0272 11.6667 22.9167V21.25Z" fill="#878787"/>
<path d="M13.3333 22.0833C13.3333 21.9728 13.3772 21.8669 13.4554 21.7887C13.5335 21.7106 13.6395 21.6667 13.75 21.6667H16.25C16.3605 21.6667 16.4665 21.7106 16.5446 21.7887C16.6227 21.8669 16.6666 21.9728 16.6666 22.0833V22.9167C16.6666 23.0272 16.6227 23.1332 16.5446 23.2113C16.4665 23.2894 16.3605 23.3333 16.25 23.3333H13.75C13.6395 23.3333 13.5335 23.2894 13.4554 23.2113C13.3772 23.1332 13.3333 23.0272 13.3333 22.9167V22.0833ZM20 22.0833C20 22.4149 19.8683 22.7328 19.6339 22.9672C19.3994 23.2016 19.0815 23.3333 18.75 23.3333C18.4185 23.3333 18.1005 23.2016 17.8661 22.9672C17.6317 22.7328 17.5 22.4149 17.5 22.0833C17.5 21.7518 17.6317 21.4339 17.8661 21.1995C18.1005 20.965 18.4185 20.8333 18.75 20.8333C19.0815 20.8333 19.3994 20.965 19.6339 21.1995C19.8683 21.4339 20 21.7518 20 22.0833Z" fill="#878787"/>
</svg>
