<svg width="57" height="57" viewBox="0 0 57 57" fill="none" xmlns="http://www.w3.org/2000/svg">
<circle cx="28.5" cy="28.5" r="28" fill="#1D1B1B" stroke="white"/>
<circle cx="35" cy="14" r="6" fill="#D03852"/>
<path d="M37.25 22.6667C37.25 20.346 36.3281 18.1204 34.6872 16.4795C33.0462 14.8386 30.8206 13.9167 28.5 13.9167C26.1794 13.9167 23.9538 14.8386 22.3128 16.4795C20.6719 18.1204 19.75 20.346 19.75 22.6667C19.75 32.875 15.375 35.7917 15.375 35.7917H41.625C41.625 35.7917 37.25 32.875 37.25 22.6667Z" stroke="white" stroke-width="2" stroke-linecap="round" stroke-linejoin="round"/>
<path d="M31.0229 41.625C30.7665 42.067 30.3985 42.4339 29.9557 42.6889C29.513 42.9439 29.011 43.0782 28.5 43.0782C27.989 43.0782 27.487 42.9439 27.0443 42.6889C26.6015 42.4339 26.2335 42.067 25.9771 41.625" stroke="white" stroke-width="2" stroke-linecap="round" stroke-linejoin="round"/>
</svg>
