<svg width="40" height="40" viewBox="0 0 40 40" fill="none" xmlns="http://www.w3.org/2000/svg">
<path d="M16.25 2.5V7.5L13.75 8.75L10 5L5 10L8.75 13.75L7.5 16.25H2.5V23.75H7.5L8.75 26.25L5 30L10 35L13.75 31.25L16.25 32.5V37.5H23.75V32.5L26.25 31.25L30 35L35 30L31.25 26.25L32.5 23.75H37.5V16.25H32.5L31.25 13.75L35 10L30 5L26.25 8.75L23.75 7.5V2.5H16.25Z" stroke="#878787" stroke-width="2" stroke-linecap="round" stroke-linejoin="round"/>
<path d="M20 25C22.7614 25 25 22.7614 25 20C25 17.2386 22.7614 15 20 15C17.2386 15 15 17.2386 15 20C15 22.7614 17.2386 25 20 25Z" stroke="#878787" stroke-width="2" stroke-linecap="round" stroke-linejoin="round"/>
</svg>
